<?xml version="1.0" encoding="utf-8"?>
<!-- Generator: Adobe Illustrator 25.0.1, SVG Export Plug-In . SVG Version: 6.00 Build 0)  -->
<svg version="1.1" id="Layer_1" xmlns="http://www.w3.org/2000/svg" xmlns:xlink="http://www.w3.org/1999/xlink" x="0px" y="0px"
	 viewBox="0 0 2500 2500" style="enable-background:new 0 0 2500 2500;" xml:space="preserve">
<style type="text/css">
	.st0{fill-rule:evenodd;clip-rule:evenodd;fill:#FDE62F;}
	.st1{fill-rule:evenodd;clip-rule:evenodd;fill:#505E86;}
	.st2{fill-rule:evenodd;clip-rule:evenodd;}
	.st3{fill-rule:evenodd;clip-rule:evenodd;fill:#FFFFFF;}
	.st4{fill-rule:evenodd;clip-rule:evenodd;fill:#B44533;}
</style>
<g>
	<path class="st0" d="M2463.2,1250l-4.9-105.2l-13.7-105.3l-23.4-103.4l-31.5-101l-40.6-97.4l-48.5-93.7l-57.3-89.2l-64-84
		l-71.9-78.2l-78.3-71.9l-84-64l-88.6-57.3l-94.3-48.5l-97.4-40.6l-101-31.5l-103.4-23.3l-105.2-13.7L1250,36.8l-105.5,4.9
		l-105.6,13.7L935.8,78.6l-101,31.5l-97.7,40.6l-93.7,48.5l-89.2,57.3l-84,64l-77.9,71.9l-71.9,78.2l-64,84L199,643.4l-48.5,94.3
		l-40.9,97.4L78,936.1l-23,103.4l-13.6,105.3L36.8,1250l4.6,105.5L55,1461.1l23,102.8l31.5,101.3l40.9,97.7l48.5,93.7l57.3,89.2
		l64,84l71.9,78l77.6,71.9l84.3,64l88.9,57.3l94,48.5l97.7,41l101,31.5l103.1,23.1l105.6,13.6l105.2,4.6l105.5-4.6l105.2-13.6
		l102.8-23.1l101-31.5l98-41l93.7-48.5l89.2-57.3l84-64l78.3-71.9l71.9-77.7l64-84.3l57.3-88.9l48.5-94l40.6-97.7l31.5-101
		l23.4-103.1l13.7-105.6L2463.2,1250L2463.2,1250z"/>
	<path class="st1" d="M2060.8,1267.3l-3.3-73.4l-10.3-72.8l-16.4-71.3l-22.7-70l-29.7-67.3l-35.5-64.6l-40.7-61.3l-46.7-56.7
		l-51.2-52.8l-55.8-47.6l-60.4-42.2l-63.4-37l-67-30.9l-68.9-24.3l-71.3-18.5l-72.8-11.5l-73.4-4.8l-36.7,0.3v1613.3l36.7,1.2
		l73.4-5.5l72.8-11.5l71.3-18.2l68.9-24.6l67-30.6l63.4-37l60.4-42.5l55.8-47.6l51.2-52.5l46.7-57.3l40.7-60.7l35.5-64.6l29.7-67.3
		l22.7-69.8l16.4-71.9l10.3-72.8L2060.8,1267.3z"/>
	<path class="st2" d="M1357.1,1177.8l-14,20.9l-12.7,27l-7.6,29.1l-2.4,30l2.4,30l7.6,29.1l12.7,27.3l17,25.2l20.9,21.2l24.6,17.6
		l26.7,13.6l20.9,5.8l-8.8,1.8l-21.9,11.2l-19.4,15.1l-16.1,18.2l-12.1,21.5l-7.3,23.4l-2.4,24.6l2.4,24.3l7.3,23.4l12.1,21.2
		l16.1,19.1l19.4,14.9l21.9,10.9l23.9,6.1l23,1.2h15.2l-3,1.2l-14,12.7l-10.6,16.1l-6.4,17.9l-2.4,18.5l2.4,18.8l6.4,17.9l10.6,16.1
		l14,12.7l17,8.8l18.5,4.8l17,0.3h68.8v0.6l-31.9,66.4l58.5-44.3l7-4.2l14.9-11.2l15.1-13.6l8.8-15.5l4-10l1.2-10.3l-0.3-10.3
		l-3.3-9.1l-4.8-8.8l17.3-4.9l16.1-7.3l13.9-11.2l12.2-13l8.8-15.5l7.3-20l2.4-20.6l-2.4-20.9l-7.3-20.3l-11.2-17.6l-14.9-15.2
		l-15.5-10.6l23.7-0.3l24.9-4.6l23.7-8.8l21.8-12.1l19.4-15.8l17-18.5l13.6-20.9l9.7-23.4l6.4-24.3l1.8-24.6l-1.8-25.5l-6.4-24.3
		l-9.7-23l-13.6-20.9l-17-18.5l-19.4-16.1l-21.8-12.1l-20.3-7.3l13.7-2.4l27-8.2l25.8-13l18.5-15.5l22.8-20.6l18.5-24.9l14.9-26.7
		l10.3-28.5l6.4-29.1l4-26.4l0.9-26.7l-2.1-26.7l-4.3-27l-6.7-26.7l-9.7-26.4l-11.8-24.6l-13.7-24l-15.5-23.4l-17-21.8l-18.8-19.7
		l-31.2-31.2l-42.5,48.2h-176.8l-8.8,13l-8.2,13.7l-2.4,7.6h-96.2l0.6-8.5l-27.3-12.7l-13-7.9l-12.1-8.5l-8.8-6.4l-9.1-6.4l-9.1-4.3
		l-10.9-4.6l-14.9-0.9l-14.5,2.4l-13,5.8l-12.1,9.4l-8.5,12.4l-4.3,14.6l0.9,15.5l5.7,14.3l9.7,11.5l14.3,8.8l13,5.8l-8.8-1.8
		l-17.3,0.3l-16.7,4.6l-15.5,8.2l-12.7,11.5l-9.7,14.6l-6.1,16.1l-2.1,17.6l2.4,17l5.8,16.4l9.7,14.3l13.3,11.5l15.5,8.2l16.4,4.6
		l17.6,0.3l5.1-1.5l-14.8,10.9l-12.1,16.4l-5.8,13l-2.1,15.5l3.9,15.2l8.8,12.7l12.1,9.1L1357.1,1177.8L1357.1,1177.8z"/>
	<path class="st0" d="M1500.2,1007.3l-16.4-13l-13-15.5l-10.3-17.9l-6.7-20l-2.4-20.3l1.2-20.3l-17.3-8.2l-14.5-8.5l-13-9.1
		l-8.5-6.7l-7.6-4.9l-7.9-4l-7.6-3l-10.9-0.9l-10,1.8l-9.4,3.9l-8.2,6.4l-5.2,8.2l-3,9.4l0.6,9.7l3.6,8.5l7,7.9l10,6.7l26.7,11.2
		l15.8,5.4l2.7,11.5l2.1,11.8l1.2,12.1l0.6,11.5h-11.2l-7.6-10.6l-10.3-8.2l-12.1-6.1l-12.7-2.7l-13.4,0.3l-12.7,3.6l-11.5,6.1
		l-10.3,8.8l-7.3,11.2l-4.3,12.7l-2.1,13l2.1,13l4.9,12.7l7.3,10.6l9.7,8.8l11.5,6.1l13,3.6l13,0.3l13.3-2.7l12.1-6.4l10-8.2
		l7.9-10.9l10.6,0.6l-0.6,15.5l-1.8,15.2l-3,9.7l-8.2,4.2l-18.8,9.7l-17,11.8l-9.7,13l-4,8.8l-0.9,9.7l2.4,9.1l5.1,8.2l7.3,5.8
		l9.4,3l9.7-0.6l9.1-3.3l11.8-9.1l14-11.2l15.5-9.7l16.7-7.9l17.3-5.1l-1.5-22.5l2.4-19.7l6.4-19.1l10.3-17.3l12.4-15.2
		L1500.2,1007.3L1500.2,1007.3z"/>
	<path class="st0" d="M1805.7,840.5l-36.4,40.3h-175.3l-3.3,5.1l-7,11.2l-5.1,17.9h-108.9l-0.3,20.9l5.8,19.4l11.5,17.6l15.8,13
		l18.8,8.2l20.3,2.4h51v16.7h-51l-20.3,4.3l-17.9,10.3l-15.4,13.9l-10.9,17.9l-5.2,20l-0.6,20.9h148.6l4.3,1.8l3.3,2.4l1.2,5.5
		l-1.2,5.8l-3.7,5.2l-5.5,3.6l-5.8,0.9l-9.7,0.3H1492l-27.3,3.6l-26.1,7.3l-24.3,12.1l-22.5,15.8l-18.8,19.4l-15.5,22.5l-11.2,24.9
		l-6.7,25.8l-2.4,27.3l2.4,27l6.7,26.4l11.2,24.6l15.5,22.5l18.8,19.4l22.5,16.1l24.3,12.1l26.1,7.6l27.3,3h211.1l4.8,0.6l4.3,2.4
		l3,3.6l0.9,4.9l-0.9,4.5l-3,4.3l-4.3,2.4H1492l-21.2,1.5l-20.6,5.4l-18.8,9.1l-16.4,12.7l-13.7,15.8l-10.3,18.5l-6.4,20.3
		l-2.4,20.9l2.4,20.9l6.4,20l10.3,18.2l13.7,16.1l16.4,13l18.8,9.4l20.6,5.1l21.2,1.2H1661l4.3,0.3l3.9,2.4l2.4,3.3l0.9,4.6
		l-0.9,4.2l-2.4,3.3l-3.9,2.4l-4.3,0.6H1556l-14.6,0.6l-14.6,3.3l-13,7.3l-11.2,10l-8.2,12.1l-5.4,14.3l-1.8,14.6l1.8,14.9l5.4,14.3
		l8.2,12.1l11.2,10l13,7.3l14.6,3.7l14.6,0.3h72.8l6.4,3l4.8,5.1l1.8,7v6.7l-3.3,6.4l3.3-2.4l7.3-4.2l13.6-10.3l12.1-11.2l7-12.1
		l2.7-7.3l0.9-7.6l-1.2-7.9l-3-7.3l-5.5-6.4l-6.1-4.2l-7.9-2.4l-7.9-0.6h-82.5l-1.8-0.9l-1.8-0.9l-1.5-2.4l-0.6-2.4l0.6-2.1l1.5-2.4
		l1.8-0.9l1.8-0.9h105.9l17.6-1.8l16.1-6.1l14.6-9.1l12.4-12.1l9.4-14.6l5.2-16.4l2.1-17l-2.1-17.6l-5.2-16.1l-9.4-14.6l-12.4-12.4
		l-14.6-9.4l-16.1-5.1l-17.6-2.1h-162.9l-4.6-0.3l-3.3-1.5l-3.3-3l-2.1-3.3l-0.3-3.9l0.3-3.9l2.1-3.6l3.3-2.4l3.3-2.1h210.8
		l22.2-0.3l21.8-3.9l21-7.9l19.4-10.6l17.6-14l14.9-16.7l11.8-18.8l9.1-20.3l5.5-21.8l1.8-21.8l-1.8-22.4l-5.5-21.9l-9.1-20.3
		l-11.8-19.1l-14.9-16.4l-17.6-13.6l-19.4-11.2l-21-7.6l-21.8-3.9l-22.2-0.6h-213.5l-4-1.8l-3.3-3l-2.1-3.6l-0.9-3.9l0.9-4.6
		l2.1-3.6l3.3-3l4-1.8h249.9l25.2-3.9l24.3-7.9l22.7-11.5l17-13.3l21.2-20l17-22.1l13.7-24.9l9.7-26.1l5.8-27.3l3.6-24.9l0.9-25.2
		l-2.1-24.6l-3.6-25.8l-7-25.2l-8.8-24.3l-11.5-24l-12.7-22.7l-14.9-21.8l-16.1-20.9l-17.9-19.4L1805.7,840.5L1805.7,840.5z
		 M1445,838.7h289.1v-28.8H1445V838.7z M1445,805h289.1v-28.2H1445V805z M1443.5,770.8h289.6v-28.2h-289.6L1443.5,770.8
		L1443.5,770.8z M1734.7,699.8l-0.9-5.8l-2.1-5.8l-3.3-4.9l-4.3-4.5l-5.4-2.7l-5.8-1.5l-5.7-0.6l-5.8,0.9l-6.1,2.4l-4.9,3.6
		l-3.6,4.9l-2.4,5.1l-1.5,5.8v6.4l1.5,5.8l2.4,5.5l3.6,4.2l4.9,3.9l6.1,2.4l5.8,0.9l5.7-0.3l5.8-1.5l5.4-3.3l4.3-3.9l3.3-5.5
		l2.1-5.2L1734.7,699.8z M1674.6,699.8l-0.6-5.8l-1.8-5.8l-3.6-4.9l-4.3-4.5l-5.4-2.7l-5.8-1.5l-5.7-0.6l-6.4,0.9l-5.1,2.4l-4.9,3.6
		l-4,4.9l-3,5.1l-0.9,5.8v6.4l0.9,5.8l3,5.5l4,4.2l4.9,3.9l5.1,2.4l6.4,0.9l5.7-0.3l5.8-1.5l5.4-3.3l4.3-3.9l3.6-5.5l1.8-5.2
		L1674.6,699.8z M1614.9,699.8l-0.6-5.8l-2.4-5.8l-2.7-4.9l-4.6-4.5l-5.1-2.7l-6-1.5l-6.1-0.6l-6.1,0.9l-5.2,2.4l-4.9,3.6l-3.9,4.9
		l-3,5.1l-1.2,5.8v6.4l1.2,5.8l3,5.5l3.9,4.2l4.9,3.9l5.2,2.4l6.1,0.9l6.1-0.3l6-1.5l5.1-3.3l4.6-3.9l2.7-5.5l2.4-5.2L1614.9,699.8z
		 M1555.1,699.8l-0.9-5.8l-2.1-5.8l-3.3-4.9l-4.2-4.5l-4.9-2.7l-5.7-1.5l-6.4-0.6l-5.7,0.9l-5.5,2.4l-4.8,3.6l-4,4.9l-2.7,5.1
		l-1.5,5.8v6.4l1.5,5.8l2.7,5.5l4,4.2l4.8,3.9l5.5,2.4l5.7,0.9l6.4-0.3l5.7-1.5l4.9-3.3l4.2-3.9l3.3-5.5l2.1-5.2L1555.1,699.8z
		 M1495.4,699.8l-0.9-5.8l-1.8-5.8l-3.6-4.9l-4.3-4.5l-5.5-2.7l-5.8-1.5l-5.7-0.6l-5.8,0.9l-5.8,2.4l-4.9,3.6l-3.9,4.9l-2.4,5.1
		l-1.5,5.8v6.4l1.5,5.8l2.4,5.5l3.9,4.2l4.9,3.9l5.8,2.4l5.8,0.9l5.7-0.3l5.8-1.5l5.5-3.3l4.3-3.9l3.6-5.5l1.8-5.2L1495.4,699.8z"/>
	<path class="st2" d="M1514.5,327.6l4.2,9.1l6.4,8.2l7.3,7l8.2,5.8l9.7,3.9l9.7,2.7l10.3,0.6l10-0.9l9.7-2.4l9.4-4.6l8.2-6.1
		l7.3-7.3l5.7-8.5l4.3-9.1l3-9.7l1.5-10.3v-9.7l-2.1-10l-2.7-9.7l-5.5-9.4l-6.4-7.6l-7.6-7l-9.4-5.1l-9.7-3.3l-10.6-2.1h-10
		l-10.3,2.1l-9.1,3.6l-8.8,5.5l-7.9,6.7l-6.7,8.5l-5.7,9.7l-4,10l-2.1,9.7l-0.9,10.3l1.5,10L1514.5,327.6L1514.5,327.6z
		 M1254.3,240.6l5.4-0.3l5.2-2.1l4.9-3.3l4-4.9l3-5.8l1.8-7.3v-5.8l-1.8-6.4l-4-6.4l-4.5-3.9l-5.2-2.7l-6.4-1.5h-3.9l-19.1-0.6
		l-0.6,50.7l19.7,0.3L1254.3,240.6L1254.3,240.6z"/>
	<path class="st2" d="M2411.7,1148.7l-13.7-101l-21.8-99.5l-30.6-96.5l-38.8-94.3l-47-90.1l-15.4-24.3l-39.4-61.6l-61.9-80.7
		l-68.5-75.2l-10.3-9.4l-64.9-59.2l-80.7-61.9l-85.8-54.9l-90.1-47l-94.3-38.8l-77.9-24.9l-18.5-5.8l-99.5-21.8l-101-13.7l-98.6-4.3
		h-2.7l-101.9,4.3L1047.4,102l-99.2,21.8l-97.1,30.6l-94,38.8l-64,33.4l-26.4,13.6l-85.8,54.9l-80.7,61.6l-20,18.5l-44.9,40.9
		l-10.3,9.4l-68.2,75.2l-62.2,80.7l-29.4,45.8l-25.5,40l-47,90.1l-38.8,94.3l-30.7,96.5l-21.8,99.5l-13.7,101L83.5,1250l4.2,101.9
		l13.7,100.7l21.8,99.2l30.6,97.1l38.8,94l47,90.4l25.5,39.7l29.4,46.1l61.6,80.7L425,2075l10.3,9.1l44.9,40.9l20,18.2l80.7,62.2
		l85.8,54.9l26.4,13.7l64,33.4l94,38.8l96.8,30.6l99.5,21.8l100.7,13.6l101.6,4.3l3-0.3l98.6-4l101-13.6l98.9-21.8l19.1-6.1
		l77.9-24.6l94.3-38.8l90.1-47l85.8-54.9l80.7-61.6l64.9-59.4l10.3-9.4l68.5-75.2l61.9-80.7l39.4-61.6l15.4-24.3l47-90.4l38.8-93.7
		l30.6-97.1l21.8-99.5l13.7-100.7l4.3-101.9L2411.7,1148.7L2411.7,1148.7z M1910.3,349.5l49.1,44l-46.1,116.5l109.5-59.4l49.1,43.7
		l-118.3,191.1l-45.8-40.6l75.8-115.6l-125.3,71.3l-24.9-21.8l52.5-135.9L1783.2,533l-46.1-41.2L1910.3,349.5L1910.3,349.5z
		 M1449.9,295.5l1.5-13l2.7-12.7l4.8-13l5.8-12.4l7.9-11.8l8.8-10.6l9.7-8.8l10-7.6l11.2-7l12.7-4.9l13-3.3l13.7-1.8l14.6-0.6l4,0.3
		l10.9,0.6l15.1,3l14.6,4.9l14,5.8l13.3,7.9l11.5,8.5l10.3,9.4l9.1,10.6l7.9,11.2l6.1,13l4.5,13.6l2.7,14l0.6,14.3l-0.6,14.6
		l-2.7,14l-4.5,13l-5.2,12.1l-6.4,11.8l-7.9,10l-9.7,10.3l-10.9,8.8l-12.1,7.3l-13.3,5.8l-13.3,3.9l-14.6,2.4l-14.6,0.3l-4.8-0.3
		l-9.4-0.6l-13.9-2.4l-13.7-4.3l-14-5.5l-13.7-7.3l-12.1-8.2l-10.3-9.4l-9.1-9.7l-7.9-10.9l-6.7-12.1l-4.8-12.7l-3.3-13.7l-2.1-13.6
		L1449.9,295.5L1449.9,295.5z M1174.5,139.9l78.3,0.9h5.8l16.1,0.9l10.6,3l10.9,3.3l8.5,4.9l8.5,5.8l6.7,6.7l5.8,7.9l4.8,8.8
		l3.3,9.7l2.1,9.7l0.3,9.1l-0.9,9.7l-1.8,9.7l-3,7.9l-3.9,7.6l-5.2,7.9l-6.4,6.4l-7.3,5.1l-8.2,4.6l-7.9,2.7l68.9,91.3l-72.8-0.9
		l-55.5-82.5l-0.9,81.6l-59.2-0.6L1174.5,139.9L1174.5,139.9z M621.2,336.7L821.1,465l-51,36.7l-35.8-23.4l-66.7,48.5l12.1,40.9
		l-50.3,36.4l-64.6-226.6L621.2,336.7L621.2,336.7z M439.3,491.1l36.4,30.6l-44.6,53.4l27,22.7l37.9-45.2l37.9,31.5l-37.3,44.6
		l68.2,57.3L526,732.9L355.9,591.2L439.3,491.1L439.3,491.1z M246.7,778.1l152.3,72.2l29.1-60.7l7.3,3.6l39.7,19.1l-54.9,115.6
		l-199.9-95.2L246.7,778.1L246.7,778.1z M376.5,1079.2l-41.2,9.7l-10.9,81.6l37.3,19.4l-8.2,61.3l-208.4-110.4l9.4-68.2l230.8-55.8
		L376.5,1079.2z M2107.5,1338.6l-9.7,73.4l-15.4,72.2l-18.2,58.8l-3.6,11.5l-28.2,68.5l-33.7,65.5l-39.1,62.5l-44.3,59.4l-49.4,54.6
		l-54,50.6l-58.2,45.5l-61.6,40.9l-64.9,34.9l-56.7,24.6l-10.9,4.6l-69.8,23.7l-71.9,17l-73.1,11.2l-74,4.9l-17.9-0.3l-55.5-1.2
		l-73.4-8.2l-72.2-14l-71-20.6l-69.2-26.1l-66.1-32.5l-63.7-37.9l-59.4-43.1l-29.1-24.9l-27.3-23.4l-51.6-52.8l-47-56.7l-41.6-60.7
		l-36.4-64.6l-9.1-19.4l-22.1-47.6l-22.7-64l-1.8-5.5l-19.1-71.3l-12.4-72.8l-6.4-73.7v-73.7l6.4-73.1l12.4-72.8l19.1-71.3l1.8-5.5
		l22.7-64.6l22.1-47.6l9.1-19.4l36.4-64l41.6-61l47-57l51.6-52.8l27.3-23l29.1-24.9l59.4-43.4l63.7-37.9l66.4-31.9l68.9-26.7
		l71-20.3l72.2-14.3l73.4-7.6l55.5-1.2l17.9-0.3l74,4.2l73.1,11.2l71.9,17.6l69.8,23l10.9,4.9l56.7,24.9l64.9,34.9l62.2,40.3
		l57.6,45.5l54,51l49.4,54.9l44.3,58.8l39.1,62.5l33.7,66.1l28.2,67.9l3.6,11.8l18.2,58.8l15.4,71.9l9.7,73.4l2.7,73.4
		L2107.5,1338.6L2107.5,1338.6z M2123.5,889.7l-45.8,22.7l-60-119.5l198-99.5l59.5,118.9l-42.2,21.5l-32.5-65.2l-32.2,16.7
		l27.3,54.3l-43.1,21.8l-27.9-54.3l-34.3,17.3L2123.5,889.7L2123.5,889.7z M2357.7,1139l-2.4,14.6l-3.6,13l-5.4,12.7l-6.7,12.1
		l-8.8,11.2l-10.3,10l-11.5,8.8l-12.1,6.7l-13.7,6.1l-13.6,3.6l-14,2.1l-11.2,0.3h-1.8l-13.3-0.3l-13-2.4l-12.4-4.6l-13.3-6.1
		l-12.2-7.3l-10.6-9.4l-9.7-10.6l-8.2-12.1l-6.7-12.7l-6.1-13l-3.6-13.7l-2.4-14l-1.2-15.2l0.6-14.9l1.8-15.2l4-13l4.9-12.7
		l6.4-11.5l7.9-11.5l9.1-10.3l10.6-9.1l11.8-7.3l11.5-6.1l12.7-4.2l12.4-3l13.7-1.2h14l14.3,1.2l13,3.6l12.1,4.3l11.5,5.8l10.9,7.3
		l10,8.8l9.4,10.6l7.6,11.8l7,12.4l5.1,14.3l4,14.6l2.4,14.9l0.6,15.5L2357.7,1139L2357.7,1139z"/>
	<path class="st2" d="M2301.6,1097.1l-4.6-9.7l-6-7.6l-7.9-7l-8.8-5.2l-9.1-3.9l-10.3-2.4l-10.6-0.9h-0.9l-10.6,0.9l-9.7,2.4
		l-9.4,3.9l-8.8,5.2l-7.3,7l-5.8,8.2l-4.8,9.1l-2.7,9.7l-1.5,9.7l0.3,10.3l2.1,10.3l3.9,9.1l5.1,8.8l7,7.6l8.2,6.4l8.8,4.9l9.7,3
		l10,1.5h10.3l10-1.5l9.4-3l9.1-4.9l8.2-5.8l7.3-7.3l6.1-8.8l4.3-9.1l2.4-10.3l0.9-10l-1.5-10.3L2301.6,1097.1L2301.6,1097.1z
		 M206.3,1113.8l75.2,36.4l6.7-51.9L206.3,1113.8L206.3,1113.8z M693.1,453.2l2.4-1.8l-2.4-1.8l-65.5-46.7l25.5,79.2L693.1,453.2z"
		/>
	<path class="st3" d="M755,1121.1V627.9l-28.5,22.7l-54,50l-48.8,54.9L580,814.7l-38.5,63.1L509,944l-26.1,68.2l-19.4,71l-7,37.9
		H755L755,1121.1z M755,1355.5H444.1l3.3,19.4l13,72.5l20,70.7l26.1,69.2l32.2,65.8l38.2,62.8l43.7,59.2l49.1,54.9l53.7,50.4
		l31.5,22.4L755,1355.5L755,1355.5z M979.8,1355.5v676.1l70.4,21.5l71.9,14.9l72.8,8.2v-720.7L979.8,1355.5L979.8,1355.5
		L979.8,1355.5z M979.8,1121.1h215v-663l-72.8,8.2l-71.9,15.2l-70.4,21.2L979.8,1121.1L979.8,1121.1L979.8,1121.1z"/>
	<path class="st4" d="M843,569.7l-56.4,34.9v554.8H446.8l-4.3,40.3l-1.8,40.3l-0.6,40l1.8,40.3h344.6v608.4l36.1,26.7l38.2,23.4
		l40.3,20.3l43.7,19.4v-698.2h249.9v-161.1H944.9V522.1l-36.4,13.7L843,569.7z"/>
</g>
</svg>
