<?xml version="1.0" encoding="utf-8"?>
<!-- Generator: Adobe Illustrator 25.0.1, SVG Export Plug-In . SVG Version: 6.00 Build 0)  -->
<svg version="1.1" id="Layer_1" xmlns="http://www.w3.org/2000/svg" xmlns:xlink="http://www.w3.org/1999/xlink" x="0px" y="0px"
	 viewBox="0 0 2500 776" style="enable-background:new 0 0 2500 776;" xml:space="preserve">
<style type="text/css">
	.st0{fill:#FFFFFF;stroke:#000000;stroke-width:1.1823;stroke-linecap:round;stroke-linejoin:round;stroke-miterlimit:14.3028;}
</style>
<path class="st0" d="M2111.1,0.4c-113.9,0-217.2,49.3-286.9,128.9C1754.5,50.4,1651.6,0.4,1536.9,0.4
	c-113.1,0-215.6,49.3-286.5,127.7C1180.2,50.1,1077,0.4,962.7,0.4c-113.1,0-215.6,49.3-286.1,127.7C606,49.7,502.8,0.4,388.5,0.4
	C174.9,0.4,1.1,174.2,1.1,387.8s173.8,387.4,387.4,387.4c113.9,0,216.8-50.1,288.5-128.1c71.7,78.8,173,128.1,285.7,128.1
	c113.9,0,216.8-50.1,287.7-128.1c70.9,78.8,173.4,128.1,286.5,128.1c114.3,0,217.2-50.4,288.1-128.9l0,0
	c70.6,79.2,172.6,128.9,286.1,128.9c213.6,0,387.4-173.8,387.4-387.4S2325.1,0.4,2111.1,0.4z M631.4,587.4L631.4,587.4
	c-54,72.1-130.1,111.1-242.8,111.1C217.2,698.6,78.1,559,78.1,388S217.2,77.8,388.7,77.8c97,0,183.7,44.5,240.4,114.7
	c-33.9,57.5-53.6,124.5-53.6,195.5C575.5,458.3,594.8,527.3,631.4,587.4L631.4,587.4L631.4,587.4z M675.6,507.4
	C661,470,652.3,429.8,652.3,388c0-41,8.3-80.8,23.3-117.4c15,36.3,23.3,76.1,23.3,117.4C698.8,430.6,689.8,471.5,675.6,507.4z
	 M1203.7,192.9c-34.3,57.1-54,124.1-54,195.1c0,69.8,20.5,137.2,53.2,194.3c-56.4,70.9-143.1,116.3-240,116.3
	c-96.2,0-182.5-44.1-240-113.5c33.5-58.3,53.2-125.3,53.2-197.1c0-69.1-18.2-136.9-52.8-196.7C780.4,122,866.7,77.8,962.9,77.8
	C1060.2,77.8,1147.7,122.8,1203.7,192.9L1203.7,192.9z M1249.8,505.4c-15.4-37.2-23.3-77.1-23.3-117.4c0-41.4,8.7-81.6,23.7-117.8
	c0,0,0,0,0,0h0c0,0,0,0,0,0c15,36.7,22.9,76.9,22.9,117.8C1273.1,429.4,1264.4,468.8,1249.8,505.4z M1537.1,698.5
	c-95.8,0-182.1-44.1-240-113.5c33.5-58.3,53.2-125.3,53.2-197.1c0-71.3-19.3-138.7-53.2-196.3c56.8-69.4,143.5-113.9,240-113.9
	c97.3,0,184.8,44.9,240.8,114.7c-34.3,57.1-54,124.1-54,195.5c0,71.3,20.1,138.7,54.4,195.1C1721.6,652.8,1634.5,698.6,1537.1,698.5
	z M1824.8,504.7c-15.4-35.1-24-74.9-24-116.7c0-41.4,8.3-81.6,24-116.3v0c14.9,37,22.5,76.4,22.5,116.3
	C1847.3,428.6,1839,467.6,1824.8,504.7z M2111.3,698.6c-96.2,0-182.9-44.5-240.4-113.9v0v0l0,0c33.9-57.9,53.6-124.9,53.6-196.7
	c0-70.2-18.9-136.4-52.8-195.1c55.6-70.5,142.7-115.1,239.6-115.1c171,0,310.2,139.1,310.2,310.2S2282.4,698.6,2111.3,698.6z"/>
</svg>
