<?xml version="1.0" encoding="utf-8"?>
<!-- Generator: Adobe Illustrator 25.0.1, SVG Export Plug-In . SVG Version: 6.00 Build 0)  -->
<svg version="1.1" id="Layer_1" xmlns="http://www.w3.org/2000/svg" xmlns:xlink="http://www.w3.org/1999/xlink" x="0px" y="0px"
	 viewBox="0 0 8626.8 2500" style="enable-background:new 0 0 8626.8 2500;" xml:space="preserve">
<style type="text/css">
	.st0{fill:#DAD5D3;}
	.st1{fill-rule:evenodd;clip-rule:evenodd;}
	.st2{fill-rule:evenodd;clip-rule:evenodd;fill:#DAD5D3;}
	.st3{fill-rule:evenodd;clip-rule:evenodd;fill:#FFFFFF;}
</style>
<path d="M5464.8,2078c-276.1,215.8-657.4,349.5-1079.2,349.5s-803.1-133.6-1079.2-349.5c-277.6-217-449.1-517.3-449.1-848.8
	c0-330,171.5-628.7,449.1-844.7c276.1-214.7,657.4-347.7,1079.2-347.7c421.8,0,803.1,132.9,1079.2,347.7
	c277.6,216,449,514.7,449,844.7C5913.8,1560.7,5742.4,1861,5464.8,2078z"/>
<path class="st0" d="M4385.6,2386.2c411.2,0,782.5-130,1051.1-339.9c267.9-209.5,433.3-498.6,433.3-817.2
	c0-317.1-165.3-604.7-433.1-813C5168.3,207.2,4797,77.9,4385.6,77.9c-411.3,0-782.7,129.3-1051.3,338.1
	c-267.8,208.3-433.1,495.9-433.1,813c0,318.6,165.4,607.7,433.3,817.2C3603.1,2256.2,3974.4,2386.2,4385.6,2386.2L4385.6,2386.2z"/>
<path d="M4385.6,2309.1c388.3,0,740.5-121.5,995.3-317.9c253.2-195.3,410.1-464.7,410.1-762c0-294.7-157.2-562.8-410.9-757.4
	c-254.7-195.4-606.6-316.6-994.5-316.6c-389,0-740.6,121-994.9,316c-253.8,194.6-410.5,462.9-410.5,758
	c0,297.7,156.5,567.4,409.8,762.6C3644.3,2187.9,3996.1,2309.1,4385.6,2309.1L4385.6,2309.1z M5408.6,2022.8
	c-262.4,202.4-624.5,327.4-1023,327.4c-399.8,0-761.5-124.9-1023.4-326.8c-263.2-202.9-425.9-483.7-425.9-794.3
	c0-307.9,163-587.6,426.8-789.9c261.8-200.8,623.2-325.4,1022.5-325.4c398.1,0,759.8,124.8,1022.1,326
	c263.7,202.2,427.1,481.6,427.1,789.3C5834.9,1539.4,5671.8,1819.9,5408.6,2022.8L5408.6,2022.8z"/>
<path d="M3759.5,2362.6c-31.1-15.6-54.5-39.9-61.2-73.8c-5.4-27.7,0.8-60.9,23.9-99.7l0.3-0.4l179.7-284.3
	c9.1-16.4,27.5-25.3,47.4-28.9c22.8-4.1,49.4-1,63.6,5.7c13.5,6.4,31.7,22.5,42.5,41.2c6.2-3.9,12.8-7.1,19.8-9.4
	c22.3-7.5,49.7-7.8,64.2-3.2h0.1c13.5,4.3,33.8,18.1,47.2,35c2.1-1.5,4.4-2.9,6.7-4.2c19-10.2,40.4-16.1,62.3-17l3.6,0.3
	c14.6,2.3,39.6,14.5,56.6,31.3l1.1,1.1c2.4-2.2,4.9-4.4,7.6-6.4v-0.1c19.1-14.5,45.8-23.2,60.6-23.2s41.5,8.7,60.7,23.2v0.1
	c2.7,2.1,5.1,4.2,7.5,6.4l1.1-1.1c17-16.8,42.1-28.9,56.7-31.3v0.1v-0.1v0.1c0.4-0.1,3.6-0.4,3.5-0.4c13.9,0,40.1,5,60.5,16.8
	c2.8,1.5,5.3,3.2,7.8,5c13.5-17.2,34.2-31.4,47.8-35.6h0.1c14.6-4.6,41.9-4.3,64.3,3.2c7,2.4,13.8,5.6,19.8,9.4
	c10.7-18.6,29-34.9,42.5-41.2h0.1c13.3-6.7,40.1-9.8,63-5.7c20.1,3.6,38.8,12.6,47.9,28.9l179.7,284.3l0.6,0.9
	c21.6,39.1,27.5,72.4,22.2,100c-6.6,33.3-28.8,57.5-59.7,72.9l-1.4,0.8c-35.8,14.9-71.2,17.7-103,3.1c-8.6-4-16.6-9-23.8-15
	c-1.2,3.8-2.6,7.5-4.1,11c-11.4,24.7-32.5,42-60,51.9v-0.1c-3.2,1.2-6.6,2.3-9.9,3.2v0.1c-5.3,1.6-10.7,3-16.2,4.1
	c-28.5,6-56.2,3.8-80.2-9c-10.4-5.5-19.6-12.6-27.4-21.1c-1.6,4.3-3.5,8.4-5.7,12.4c-16.9,30.4-46.9,47-82.1,52.8l-1.5,0.2
	c-38,3.8-72.3-3.9-98-27.2c-4.9-4.5-9.3-9.4-13.2-14.7c-16.6,28.2-47.4,46.3-81.6,48.1c-5.3,0.4-10.6,0.4-15.9,0
	c-4,0-7.6-0.1-10.7-0.4h-0.1c-30.9-2.1-58-12.3-77.8-32.8c-4.7-4.8-8.8-10.1-12.3-15.7c-4.1,5.6-8.7,10.8-13.8,15.5
	c-25.6,23.4-59.9,31-98,27.2l-1.5-0.2c-35.2-5.8-65.2-22.5-82-52.8c-2.4-4.4-4.5-9-6.3-13.6c-7.9,9-17.5,16.6-28.2,22.5
	c-25.2,13.5-53.9,15.1-83.9,7.8c-3.5-0.9-7-1.8-10.4-2.8c0-0.1,0-0.1-0.1-0.1h0c-3.6-1-7.1-2.1-10.5-3.3
	c-27.4-9.9-48.5-27.1-59.9-51.8c-1.6-3.5-3.1-7.2-4.2-10.9c-7.5,6.2-15.4,11.1-23.7,14.9c-31.8,14.6-67.3,11.8-103.1-3.1
	C3760.5,2363.1,3760,2362.8,3759.5,2362.6L3759.5,2362.6z"/>
<path class="st0" d="M3890.9,2273.2l0.1-0.4c1.9-6.3,4.2-12.5,6.7-18.6l0.3-0.6l20.6-46.4l102.3-243.9l0.4-0.9
	c2.3-4.9,0.4-11.9-3.3-18.8c-6.3-12-17-22.1-24.4-25.6c-7.1-3.3-22-4.6-35.9-2.1c-8,1.4-14.9,3.9-16.9,7.7l-0.8,1.3l-179.7,284.3
	c-17.6,29.6-22.7,53.5-19.1,72.1c3.8,19.7,18.1,34.5,37.3,44.5c24.2,10,47.1,12.4,66.1,3.7
	C3862.4,2321.4,3878.3,2303.5,3890.9,2273.2L3890.9,2273.2z M3959.5,2222.1l-27.1,64.5c-0.1,0.2-0.2,0.5-0.3,0.7
	c-7.3,24.8-6.6,44.4,0.1,58.9c6.3,13.9,18.9,23.7,35.2,29.6l0.1,0.1c2.2,0.9,4.8,1.6,7.4,2.3l0.8,0.3c2.8,0.9,5.6,1.6,8.2,2.3
	c19.2,4.6,36.9,3.9,51.4-3.8c15.2-8.2,28.2-24.5,37.6-51c1.6-4.6,3-8.8,4.1-12.8h0l82.1-323.3l0.5-1.7c1.5-4.3-1.3-10.5-5.7-16.7
	c-8.2-11.2-20.3-20.3-27.7-22.6c-7.1-2.2-22.3-1.5-35.8,3c-7.6,2.6-13.9,6.2-15.5,10.6l-0.6,1.4L3959.5,2222.1L3959.5,2222.1z
	 M4852.6,2207.1l20.6,46.4l0.2,0.5c2.6,6.3,5,12.7,7,19.2c12.6,30.2,28.4,48.1,45.9,56.2c19,8.7,41.9,6.4,66-3.7
	c18.9-9.8,32.3-24.2,36-43.4c3.6-18.9-1.2-43.2-17.9-73.5l-179.5-284l-0.7-1.3c-1.9-3.6-9.1-6.2-17.4-7.6
	c-14.1-2.6-28.6-1.7-33.8,1.2c0,0.1-1.4,0.9-1.4,0.9c-7.5,3.5-18.1,13.6-24.4,25.5c-3.7,6.9-5.6,13.9-3.3,18.9l0.5,0.9
	L4852.6,2207.1L4852.6,2207.1z M4498.1,2276.1l4.2,49.1v0.1c0.4,4.2,0.5,8.2,0.6,12.1c3.2,30.2,12.6,50.5,26,62.8
	c15,13.7,36.6,18.2,61.5,16c22.3-3.7,40.8-13.6,50.6-31.4c9.4-16.8,12-41.2,4.3-74.7l-78.8-320l-0.2-0.6
	c-1.1-5.6-6.6-10.4-13.3-14.3c-11-6-23.3-9.6-36-10.5c-7.7,1.9-20.4,8.8-30.2,18.6c-6,5.9-10.3,12.5-9.8,18l0.2,0.6L4498.1,2276.1
	L4498.1,2276.1z M4268.4,2337.2c0.1-4.1,0.3-8,0.6-11.8v-0.2l4.2-48.8l21.1-274.4l0.2-0.6c0.6-5.5-3.7-12.1-9.8-18
	c-9.8-9.8-22.5-16.7-30.3-18.6c-13.3,0.9-26.2,4.5-37.8,10.8v0.1c-6.1,3.5-10.9,7.6-11.3,12l-0.4,2.6l-78.8,320
	c-7.7,33.5-5.1,57.9,4.3,74.7c9.8,17.7,28.4,27.7,50.6,31.4c24.9,2.1,46.5-2.3,61.5-16C4255.9,2387.9,4265.2,2367.5,4268.4,2337.2
	L4268.4,2337.2z M3962.5,2417.7C3962.5,2417.6,3962.5,2417.6,3962.5,2417.7L3962.5,2417.7z M3962.4,2417.6
	C3962.4,2417.6,3962.4,2417.6,3962.4,2417.6z M4709.5,1978.4L4709.5,1978.4L4709.5,1978.4z M4709.4,1978.3L4709.4,1978.3
	L4709.4,1978.3z M4832.7,2269.1L4697,1963.8l-0.7-1.4c-1.5-4.5-7.8-8.1-15.5-10.6c-13.5-4.6-28.6-5.2-35.8-3h-0.1
	c-7.4,2.3-19.4,11.4-27.6,22.6c-4.5,6.2-7.3,12.4-5.7,16.7l0.6,1.7l82.1,323.3v0.4c1.4,5.7,3.1,11.6,5.1,17.2
	c8.4,23.6,20.6,38.5,35,46.1c14.1,7.5,31.2,8.6,49.3,4.8c3.5-0.7,7.5-1.8,12-3.2l0.7-0.2L4832.7,2269.1L4832.7,2269.1z
	 M4796.4,2378.2c2.4-0.6,4.9-1.4,7.2-2.3l0.1-0.1c16.4-5.9,28.9-15.7,35.3-29.6c6.9-15.1,7.5-35.6-0.8-61.8
	c-1.6-5.1-3.4-10.1-5.4-15l-0.1-0.3c0,0.1,0,0.2,0.1,0.3L4796.4,2378.2L4796.4,2378.2z M4458.7,2351.8c0.5-7.1,0.4-15-0.3-23.5
	L4430,1999v-1.5c0-5.3-4.9-11-11.2-15.8h0c-11.5-8.7-25.9-14-33.1-14c-7.1,0-21.5,5.3-33.1,14h0c-6.4,4.9-11.3,10.5-11.3,15.8v1.5
	l-28.4,329.3c-0.4,4.6-0.6,9.1-0.6,13.7c0,28.1,7.2,47.7,19.2,60.1c11.5,11.9,28.5,18,48.5,19.3c3.4,0.3,6.3,0.4,8.9,0.4h1.2
	L4458.7,2351.8L4458.7,2351.8z M4390,2421.8c3.5,0.2,6.9,0.2,10.4,0c15.2-1,28.8-6.6,38.8-17.1c10.8-11.3,18-28.8,19.5-52.8v-0.1
	v0.1L4390,2421.8z M4061.8,1978.2L4061.8,1978.2l0,0.2L4061.8,1978.2z"/>
<path class="st1" d="M3441.4,1549.5c-63.2,32.6-243.1,80.1-293.7-29.7c-72.6,35.6-221,62.4-293.7-26.7
	c-120,26.7-255.8,83.1-306.3-47.4c-107.4,26.7-372.6,89-401-74.2c-157.9,20.8-385.3,35.6-416.9-121.6
	c-135.8,0-369.5-20.8-369.5-166.2c-135.8,0-372.6-86-344.2-189.8c-123.2-11.9-287.4-133.5-287.4-213.6
	c-120-35.6-255.8-121.6-227.4-237.3c-72.6-41.5-192.6-89-192.6-157.2c0-65.3,56.9-121.6,120-121.6c66.3,0,309.5,35.6,394.7,35.6
	c85.2,0,1121.1-20.8,1364.2-8.9c243.2,14.8,552.6,8.9,701.1-6c151.6-11.8,792.6-44.5,881.1,121.6c63.2,121.6,15.8,163.2-41,210.6
	c-60,47.5-252.6,133.5-252.6,418.3C3476.1,1217.3,3514.1,1365.6,3441.4,1549.5L3441.4,1549.5z"/>
<path class="st2" d="M536.1,232.4c221,0,735.8,14.8,836.9,14.8c101.1,0,808.4,74.2,919,106.8c50.5,14.9,63.2,62.3,0,65.3
	c-60,3-789.5,11.9-896.9,11.9c-107.4,0-843.2,11.9-941.1-109.8C381.4,232.4,473,235.3,536.1,232.4L536.1,232.4z M3346.7,979.9
	c-34.7-23.8-101.1,44.5-126.3,83.1c-22.1,41.5-6.3,65.3,19,77.1c25.3,8.9,69.5-14.8,78.9-35.6
	C3327.7,1080.8,3381.4,1012.6,3346.7,979.9z M3327.7,1300.3c-47.4,56.4-94.7,97.9-123.2,133.5c-28.4,32.6,6.3,68.2,34.7,77.1
	c31.6,8.9,85.3,38.6,148.4-83L3327.7,1300.3z M3128.7,968.1c-31.6,32.6-107.4,83.1-50.6,121.6c50.6,32.6,78.9,0,104.2-23.7
	c22.1-23.7,107.4-103.8,75.8-139.5C3226.6,893.9,3157.2,953.2,3128.7,968.1z M2964.6,941.4c-104.2,62.3,12.7,115.7,78.9,62.3
	c34.7-26.7,107.4-80.1,75.8-118.7C3090.9,852.4,2996.1,926.5,2964.6,941.4z M2977.2,822.7c-50.6,20.8-208.4,71.2-157.9,136.5
	c28.4,29.7,78.9,3,97.9-8.9c22.1-11.9,132.6-83.1,104.2-124.6C3012,810.8,2986.6,816.8,2977.2,822.7L2977.2,822.7z M2702.5,799
	c-44.2,26.7-22.1,130.5,78.9,83.1c104.2-47.5,176.8-94.9,161.1-130.5C2926.6,718.9,2809.8,745.6,2702.5,799z M2746.7,650.7
	c-44.2,14.8-91.6,35.6-126.3,56.4c-34.7,20.7-63.2,97.9,72.6,65.3c139-35.6,145.3-80.1,126.3-109.8
	C2800.3,632.9,2756.1,647.7,2746.7,650.7L2746.7,650.7z M2576.1,597.3c-34.7,2.9-66.3,29.6-56.8,59.3c12.6,35.6,94.7,47.5,183.1,5.9
	c91.6-44.5,85.3-53.4,75.8-77.1C2768.8,561.7,2674,579.4,2576.1,597.3z M2487.7,490.5c-53.7,8.9-53.7,29.6-47.4,47.5
	c6.3,17.8,34.7,50.4,126.3,35.6c94.7-11.9,145.3-47.5,145.3-77.1C2711.9,466.8,2544.5,484.5,2487.7,490.5L2487.7,490.5z
	 M2475.1,386.6c-94.8,0-97.9,94.9,9.5,89c85.2-2.9,186.3-23.8,186.3-53.4C2667.7,389.6,2544.5,386.6,2475.1,386.6L2475.1,386.6z
	 M2781.4,407.4c75.8,0,350.5-5.9,429.5,8.9c78.9,11.9,176.9,32.6,217.9,100.9c37.9,56.4-22.1,148.4-50.6,186.9
	c-31.6,35.6-113.7,109.8-145.2,136.5c-28.4,20.8-82.1-11.9-34.7-62.3c-60,32.7-135.8,26.7-101.1-53.4
	c-53.7,41.5-142.1,44.5-88.4-59.3c-34.7,26.7-135.8,23.7-72.6-56.4c-53.7,14.8-113.7-14.8-75.8-65.3c-66.3,8.9-107.4-38.5-34.8-74.2
	C2759.3,487.5,2740.3,413.3,2781.4,407.4L2781.4,407.4z M1938.2,220.5c94.7,0,407.4,17.8,524.2,17.8c113.7,0,379-5.9,473.7-11.9
	c97.9-6,350.5-11.9,451.6,0c101.1,8.9,322.1,23.7,360,121.6c41,97.9-44.2,151.3-97.9,189.9c-53.7,35.6-221,127.6-227.4,364.9
	c-41-17.8-104.2-26.7-60-112.7c25.3-47.4,145.2-201.7,116.8-272.9c-28.4-71.2-120-127.5-331.6-136.5c-211.6-5.9-508.4,0-612.6-14.8
	c-104.2-17.8-502.1-112.7-584.2-121.6C1913,238.3,1913,223.5,1938.2,220.5L1938.2,220.5z M3182.4,1217.3
	c-56.8,53.4-142.1,142.4-202.1,189.8c-41,35.6-12.7,103.8,56.9,74.2c66.3-29.6,189.5-136.4,224.2-240.3
	C3234.7,1234.4,3208.3,1226.5,3182.4,1217.3z M3021.4,1166.8c-91.5,59.3-300,189.8-334.7,213.6c-47.4,29.7-72.6,80.1,22.1,74.2
	c91.5-8.9,265.2-71.2,401-258.1C3090.9,1190.6,3043.5,1175.7,3021.4,1166.8L3021.4,1166.8z M2857.2,1077.9
	c-53.7,32.6-404.2,204.7-565.3,249.2c-53.7,17.8-28.4,65.3,25.3,71.2c53.7,8.9,189.5,8.9,350.5-83.1
	c97.9-53.4,240-151.2,284.2-186.9C2929.8,1119.3,2882.5,1092.7,2857.2,1077.9z M2708.8,962.1c-82.1,38.5-584.2,234.3-776.9,275.9
	c-53.7,11.9-82.1,50.4-19,71.2c66.3,17.8,214.7,8.9,306.3-14.8c88.4-23.7,451.6-133.5,590.5-261.1
	C2781.4,1021.5,2715.1,977,2708.8,962.1z M1524.5,1104.5c88.4-17.8,814.7-172,1023.2-246.2c60-17.8,82.1,0,91.5,20.8
	c12.7,20.8,15.8,50.4-25.3,68.2c-37.9,14.8-596.9,231.4-862.1,246.2c-94.7,0-173.7-32.6-217.9-50.4
	C1505.6,1128.3,1518.2,1128.3,1524.5,1104.5z M1186.6,929.5c126.3-14.8,960-139.5,1184.2-195.8c91.6-20.8,132.6-11.9,145.3,11.8
	c9.5,23.8,9.5,65.3-53.7,86c-66.3,20.8-802.1,181-937.9,189.9c-135.8,5.9-296.8-23.8-341.1-56.4
	C1142.4,935.5,1186.6,929.5,1186.6,929.5L1186.6,929.5z M918.2,718.9c91.6,0,1146.3-74.2,1367.4-118.7
	c75.8-5.9,126.3-8.9,132.6,20.7c6.3,29.7,3.2,44.5-60,62.3c-66.3,14.8-849.5,154.3-1244.2,160.2
	C981.4,840.5,826.6,721.8,918.2,718.9L918.2,718.9z M668.8,496.4c129.4,3,773.7,5.9,849.5,3c72.6-3,656.9-32.6,723.1-35.6
	c69.5-5.9,132.6,11.9,132.6,32.6c0,20.7-12.7,38.5-91.6,53.4c-78.9,17.8-805.3,94.9-1354.8,86c-104.2,2.9-243.2-47.5-281.1-94.9
	C611.9,493.4,649.8,496.4,668.8,496.4L668.8,496.4z M3578.1,316.8c-32.7-15.4-9.3-59.6,23.4-44.2c26.6,12.5,54.9,27.4,77.6,43.6
	c26.1,18.6,45.6,39.8,50.1,63.2l0.5,2.3c2,22.1-1.1,43.6-14.2,66.3c-12.1,21-32.7,42.2-66.1,65.3c-29.5,20.4-60.5-19.4-31-39.8
	c26.6-18.4,42.4-34.2,50.8-48.9c7.3-12.6,9-25.2,7.9-38.5c-2.9-8.9-14.5-19.6-30-30.7C3627.4,341.3,3602,328,3578.1,316.8
	L3578.1,316.8z"/>
<path class="st1" d="M5380.4,1549.5c63.2,32.6,243.2,80.1,293.7-29.7c69.5,35.6,221,62.4,293.7-26.7c120,26.7,255.8,83.1,306.3-47.4
	c107.3,26.7,372.6,89,401-74.2c157.9,20.8,385.3,35.6,413.7-121.6c135.8,0,372.6-20.8,372.6-166.2c135.8,0,372.5-86,344.2-189.8
	c120-11.9,284.2-133.5,284.2-213.6c123.2-35.6,258.9-121.6,230.6-237.3c72.6-41.5,192.6-89,192.6-157.2c0-65.3-56.8-121.6-120-121.6
	c-66.3,0-309.5,35.6-394.7,35.6c-85.3,0-1124.3-20.8-1367.4-8.9c-243.3,14.8-549.5,8.9-701.2-6c-148.4-11.8-789.5-44.5-877.9,121.6
	c-66.4,121.6-15.9,163.2,41,210.6c56.8,47.5,249.5,133.5,249.5,418.3C5342.4,1217.3,5307.7,1365.6,5380.4,1549.5L5380.4,1549.5z"/>
<path class="st2" d="M8285.7,232.4c-224.3,0-739,14.8-836.9,14.8c-101,0-808.4,74.2-922.1,106.8c-47.4,14.9-60.1,62.3,0,65.3
	c63.1,3,792.6,11.9,900,11.9c107.3,0,840,11.9,941-109.8C8437.2,232.4,8348.8,235.3,8285.7,232.4z M5475.1,979.9
	c31.6-23.8,101,44.5,123.1,83.1c25.3,41.5,6.4,65.3-18.9,77.1c-22.1,8.9-66.4-14.8-75.8-35.6
	C5494.1,1080.8,5440.4,1012.6,5475.1,979.9z M5494.1,1300.3c47.3,56.4,94.7,97.9,123.1,133.5c28.4,32.6-9.5,68.2-37.9,77.1
	c-28.4,8.9-82.2,38.6-145.2-83L5494.1,1300.3L5494.1,1300.3z M5693,968.1c31.6,32.6,107.3,83.1,47.3,121.6
	c-47.3,32.6-78.9,0-101-23.7c-22.2-23.7-107.4-103.8-75.9-139.5C5595.1,893.9,5664.5,953.2,5693,968.1z M5857.2,941.4
	c101,62.3-15.8,115.7-78.9,62.3c-37.9-26.7-110.5-80.1-75.8-118.7C5730.8,852.4,5825.6,926.5,5857.2,941.4z M5844.6,822.7
	c50.5,20.8,208.4,71.2,157.9,136.5c-28.4,29.7-78.9,3-97.9-8.9c-22.1-11.9-135.8-83.1-107.3-124.6
	C5809.8,810.8,5835.1,816.8,5844.6,822.7L5844.6,822.7z M6116.1,799c47.3,26.7,25.3,130.5-78.9,83.1
	c-101-47.5-173.7-94.9-157.9-130.5C5895.1,718.9,6012,745.6,6116.1,799z M6075,650.7c44.3,14.8,88.5,35.6,126.4,56.4
	c34.7,20.7,63.2,97.9-75.8,65.3c-135.8-35.6-142.1-80.1-123.2-109.8C6021.4,632.9,6062.5,647.7,6075,650.7L6075,650.7z
	 M6242.4,597.3c37.9,2.9,69.5,29.6,60,59.3c-12.6,35.6-94.7,47.5-183.1,5.9c-91.6-44.5-85.3-53.4-75.9-77.1
	C6053,561.7,6144.5,579.4,6242.4,597.3z M6334.1,490.5c53.6,8.9,53.6,29.6,47.3,47.5c-9.5,17.8-37.9,50.4-129.4,35.6
	c-91.5-11.9-142.1-47.5-142.1-77.1C6109.8,466.8,6277.2,484.5,6334.1,490.5L6334.1,490.5z M6346.7,386.6c94.7,0,94.7,94.9-12.6,89
	c-82.2-2.9-183.2-23.8-183.2-53.4C6154.1,389.6,6277.2,386.6,6346.7,386.6L6346.7,386.6z M6037.2,407.4c-75.8,0-350.6-5.9-429.5,8.9
	c-78.9,11.9-176.8,32.6-217.8,100.9c-34.7,56.4,25.3,148.4,53.7,186.9c28.3,35.6,110.5,109.8,145.2,136.5
	c28.3,20.8,82.1-11.9,34.7-62.3c60,32.7,135.8,26.7,101-53.4c53.7,41.5,142.1,44.5,88.5-59.3c34.7,26.7,135.8,23.7,72.6-56.4
	c53.7,14.8,113.7-14.8,72.7-65.3c69.5,8.9,107.4-38.5,37.9-74.2C6062.5,487.5,6081.4,413.3,6037.2,407.4L6037.2,407.4z
	 M6883.5,220.5c-94.7,0-410.5,17.8-524.2,17.8c-113.7,0-378.9-5.9-473.7-11.9c-97.8-6-350.5-11.9-451.5,0
	C5333,235.3,5112,250.2,5070.8,348c-37.9,97.9,47.4,151.3,101.1,189.9c53.7,35.6,217.9,127.6,224.2,364.9
	c44.2-17.8,104.2-26.7,63.2-112.7c-25.3-47.4-148.4-201.7-120.1-272.9c28.4-71.2,123.2-127.5,334.8-136.5
	c211.5-5.9,508.4,0,609.4-14.8c104.2-17.8,505.3-112.7,587.4-121.6C6905.6,238.3,6905.6,223.5,6883.5,220.5z M5636.1,1217.3
	c56.9,53.4,145.3,142.4,205.3,189.8c37.9,35.6,9.4,103.8-56.9,74.2c-69.5-29.6-192.7-136.4-224.2-240.3
	C5586.2,1234.9,5611.5,1226.9,5636.1,1217.3z M5797.2,1166.8c91.5,59.3,303.2,189.8,337.9,213.6c47.3,29.7,69.5,80.1-22.2,74.2
	c-91.5-8.9-265.2-71.2-401.1-258.1C5730.8,1190.6,5778.3,1175.7,5797.2,1166.8z M5961.4,1077.9c53.6,32.6,404.2,204.7,565.3,249.2
	c53.6,17.8,28.3,65.3-25.3,71.2c-50.5,8.9-189.5,8.9-350.5-83.1c-94.7-53.4-236.9-151.2-281.1-186.9
	C5891.9,1119.3,5939.3,1092.7,5961.4,1077.9z M6113,962.1c82.2,38.5,584.3,234.3,776.9,275.9c53.6,11.9,82.1,50.4,15.8,71.2
	c-63.2,17.8-211.6,8.9-303.2-14.8c-88.5-23.7-451.6-133.5-590.5-261.1C6040.4,1021.5,6106.7,977,6113,962.1z M7297.2,1104.5
	c-88.4-17.8-814.6-172-1023.1-246.2c-60.1-17.8-82.2,0-91.6,20.8c-12.6,20.8-15.8,50.4,22.2,68.2c41,14.8,600,231.4,862.1,246.2
	c97.9,0,176.9-32.6,221.1-50.4C7316.1,1128.3,7303.5,1128.3,7297.2,1104.5L7297.2,1104.5z M7632,929.5
	c-123.2-14.8-956.9-139.5-1181.1-195.8c-91.5-20.8-132.7-11.9-145.2,11.8c-9.5,23.8-9.5,65.3,53.7,86
	c66.3,20.8,802.1,181,937.8,189.9c135.8,5.9,296.8-23.8,341.1-56.4C7679.4,935.5,7632,929.5,7632,929.5L7632,929.5z M7900.4,718.9
	c-88.5,0-1143.1-74.2-1364.3-118.7c-75.8-5.9-126.3-8.9-132.6,20.7c-6.4,29.7-3.2,44.5,60,62.3c63.2,14.8,846.3,154.3,1244.2,160.2
	C7840.4,840.5,7995.1,721.8,7900.4,718.9L7900.4,718.9z M8153,496.4c-129.4,3-773.7,5.9-849.5,3c-75.8-3-656.8-32.6-726.3-35.6
	c-66.4-5.9-132.7,11.9-132.7,32.6s15.8,38.5,94.7,53.4c78.9,17.8,805.3,94.9,1354.8,86c104.2,2.9,243.2-47.5,277.9-94.9
	C8209.8,493.4,8168.8,496.4,8153,496.4L8153,496.4z M5217.1,272.6c32.7-15.3,56.2,28.9,23.4,44.2c-24.2,11.3-49.6,24.6-68.8,38.5
	c-15.4,11.2-26.4,22-27.4,30.3h0.2c-1.3,13.7-0.2,26.5,6.8,39.2c8,14.4,23.5,29.9,51.4,48.2c30,19.7-0.3,60.3-30.2,40.5
	c-35.3-23.2-56.1-44.8-67.8-66c-12.7-22.9-14.8-44.2-12.8-66.1l0.3-0.2c2.3-24.2,21.2-46,47.6-65.1
	C5162.4,299.8,5190.6,285,5217.1,272.6L5217.1,272.6z"/>
<path class="st1" d="M4385.6,1994.5c603.2,0,1092.7-341.1,1092.7-765.4c0-418.3-489.5-759.4-1092.7-759.4
	c-603.1,0-1092.6,341.2-1092.6,759.4C3293,1653.3,3782.5,1994.5,4385.6,1994.5L4385.6,1994.5z"/>
<path class="st0" d="M4385.6,1910.2c271.2,0,516.6-77,694-201.5c175.2-123.1,283.7-292.7,283.7-479.6
	c0-184.3-108.9-352.7-284.6-475.1C4901.5,630.7,4656.4,554,4385.6,554s-515.9,76.7-693.1,200.1
	c-175.8,122.4-284.5,290.7-284.5,475.1c0,186.9,108.4,356.5,283.7,479.6C3869,1833.2,4114.3,1910.2,4385.6,1910.2z M5107.5,1743.9
	c-185,129.9-440.3,210.3-721.9,210.3s-536.8-80.3-721.9-210.3c-186.9-131.3-302.5-313.2-302.5-514.7
	c0-198.9,116.1-379.6,303.5-510.2c185-128.8,439.9-208.9,720.9-208.9c281,0,535.9,80.1,720.9,208.9
	c187.6,130.6,303.5,311.3,303.5,510.2C5410,1430.7,5294.4,1612.6,5107.5,1743.9z"/>
<path class="st3" d="M4865.6,953.2c0-112.7-126.3-281.8-489.5-281.8c-214.7,0-394.7,50.4-502.1,145.3c25.3,20.8,53.6,50.4,53.6,86
	v614.1c-3.1,38.5-22.1,68.2-50.5,100.8c101.1,77.2,271.5,145.3,536.8,139.5c265.3-5.9,511.5-86,511.5-317.4
	c0-97.9-97.8-195.8-205.2-228.4c-28.4-8.9-22.1-35.6,0-44.5C4742.4,1157.9,4865.6,1069,4865.6,953.2L4865.6,953.2z M4410.9,1624.4
	c108,0,193.2-83.1,193.2-187.6c0-104.6-85.1-187.6-193.2-187.6c-108,0-193.1,83.1-193.1,187.6
	C4217.7,1541.3,4302.8,1624.4,4410.9,1624.4z M4388.8,1146.1c91.6,0,167.4-77.1,167.4-172c0-94.9-75.8-172.1-167.4-172.1
	s-167.4,77.1-167.4,172.1C4221.4,1069,4297.2,1146.1,4388.8,1146.1z"/>
</svg>
