<?xml version="1.0" encoding="utf-8"?>
<!-- Generator: Adobe Illustrator 25.0.1, SVG Export Plug-In . SVG Version: 6.00 Build 0)  -->
<svg version="1.1" id="Layer_1" xmlns="http://www.w3.org/2000/svg" xmlns:xlink="http://www.w3.org/1999/xlink" x="0px" y="0px"
	 viewBox="0 0 2500 2500" style="enable-background:new 0 0 2500 2500;" xml:space="preserve">
<style type="text/css">
	.st0{fill-rule:evenodd;clip-rule:evenodd;}
	.st1{fill-rule:evenodd;clip-rule:evenodd;fill:#FFFFFF;}
	.st2{fill-rule:evenodd;clip-rule:evenodd;fill:#33348E;}
</style>
<g>
	<path class="st0" d="M2080,2080c229.5-228.9,344.2-505.8,343.8-830c0.4-324.2-114.3-601.1-343.8-830
		c-228.9-229.5-505.8-344.2-830-343.8C925.8,75.8,648.9,190.5,420,420C190.5,648.9,75.8,925.8,76.2,1250
		c-0.4,324.2,114.3,601,343.8,830c228.9,229.5,505.8,344.2,830,343.8C1574.2,2424.2,1851.1,2309.5,2080,2080
		C2080,2080,1851.1,2309.5,2080,2080z"/>
	<path class="st1" d="M92.8,1250C92.8,610.9,610.9,92.8,1250,92.8S2407.2,610.9,2407.2,1250c0,639.1-518.1,1157.2-1157.2,1157.2
		C610.9,2407.2,92.8,1889.1,92.8,1250L92.8,1250z"/>
	<path class="st0" d="M155.9,1250C155.9,645.8,645.8,156,1250,156c604.2,0,1094.1,489.8,1094.1,1094.1S1854.2,2344.1,1250,2344.1
		C645.8,2344.1,155.9,1854.2,155.9,1250L155.9,1250z"/>
	<path class="st1" d="M589.4,1250c0-364.8,295.7-660.6,660.6-660.6s660.6,295.7,660.6,660.6s-295.7,660.6-660.6,660.6
		C885.2,1910.6,589.4,1614.8,589.4,1250L589.4,1250z"/>
	<path class="st2" d="M1254,670.7c-318.3,0-576.3,259.4-576.3,579.3H1254V670.7z M1260.7,1831.1c319.9,0,579.3-259.4,579.3-579.3
		l0-1.8h-583v581.1H1260.7z"/>
	<path class="st1" d="M1965.5,505.8l-43.6-62.2l-181.8,229.5l42.5,60.7l164.8-48.2l-104.6,134.1l42.7,61l281.3-87.5l-43.5-62.2
		l-178.8,60.7l116.4-149.7l-33.3-47.5l-182.2,55.8L1965.5,505.8L1965.5,505.8z M1080,539.5h72.6l23.4-161.5l65.1,161.5h29
		l67.4-161.5l21.2,161.5h72.9l-42.4-280.6h-72.6l-60.3,150l-57-150h-71.8L1080,539.5L1080,539.5z M723.3,777.1
		c44.3-63.2,71.7-136.2,23.6-169.9c-32-22.4-69-16.9-107.9,29.6c9.5-35-0.2-56.8-20.9-71.3c-43.9-30.7-88.6-0.6-131.6,60.8
		l-89.8,128.3l229.9,160.9L723.3,777.1L723.3,777.1z"/>
	<path class="st0" d="M594.2,759.1l6.4-9.2c20.5-29.3,48.9-75.7,76.7-56.3c25.3,17.7-7,62-25.7,88.5l-8,11.5L594.2,759.1
		L594.2,759.1z M505.2,696.7l4.5-6.4c17-24.3,37.8-51.4,58.8-36.6c19.5,13.7,4.9,40.3-11.8,64.1l-7.1,10.1L505.2,696.7L505.2,696.7z
		"/>
</g>
</svg>
