<svg xmlns="http://www.w3.org/2000/svg" xmlns:xlink="http://www.w3.org/1999/xlink" width="176px" height="36px" viewBox="0 0 176 36" version="1.1">
    <!-- Generator: Sketch 62 (91390) - https://sketch.com -->
    <title>Logo / Suzuki-Horz</title>
    <desc>Created with Sketch.</desc>
    <g id="Symbols" stroke="none" stroke-width="1" fill="none" fill-rule="evenodd">
        <g id="Element-/-Large-Logo-Background" transform="translate(-76.000000, -26.000000)">
            <g id="Logo-/-Suzuki-Horz">
                <g transform="translate(76.000000, 26.000000)">
                    <g>
                        <path d="M16.3274812,36.0002045 L3.76068376e-05,23.5742817 C3.76068376e-05,23.5742817 6.88544495,18.0453905 12.6879134,22.3147498 L20.4571626,28.1378561 L21.4522755,27.4160973 L0.0562313431,11.0968916 C0.0562313431,11.0968916 5.04035525,8.92188905 9.83840719,5.4756022 C13.3533068,2.95734885 16.5087153,0.000204545455 16.5087153,0.000204545455 L33.0940547,12.582961 C33.0940547,12.582961 25.7025316,18.0044597 20.5074021,14.024047 C15.3119004,10.0403923 12.4862114,8.02343915 12.4862114,8.02343915 L11.5160321,8.68481499 L32.9638043,25.0408989 C32.9638043,25.0408989 29.8817081,26.0135104 23.9236835,30.0113491 C18.5782078,33.6027171 16.3274812,36.0002045 16.3274812,36.0002045" id="Fill-1" fill="#FF0000"/>
                        <path d="M173.32935,28.1313818 C173.32935,27.3577909 173.905863,26.7302455 174.621145,26.7302455 C175.327778,26.7302455 175.907299,27.3577909 175.907299,28.1313818 C175.907299,28.9012909 175.327778,29.5317 174.621145,29.5317 C173.905863,29.5317 173.32935,28.9012909 173.32935,28.1313818 L173.32935,28.1313818 Z M175.665487,28.1313818 C175.665487,27.5001545 175.200291,26.9916545 174.621145,26.9916545 C174.037111,26.9916545 173.572667,27.5001545 173.572667,28.1313818 C173.572667,28.7654727 174.037111,29.2715182 174.621145,29.2715182 C175.200291,29.2715182 175.665487,28.7654727 175.665487,28.1313818 L175.665487,28.1313818 Z M175.260838,28.8886091 L174.943436,28.8886091 L174.633932,28.2520636 L174.361658,28.2520636 L174.361658,28.8886091 L174.087504,28.8886091 L174.087504,27.3786545 L174.762923,27.3786545 C174.882513,27.3786545 175.035197,27.3852 175.138991,27.4482 C175.263846,27.5386091 175.303709,27.6830182 175.303709,27.8429727 C175.303709,28.1232 175.170581,28.2352909 174.924632,28.2520636 L175.260838,28.8886091 Z M174.76894,28.0254273 C174.924632,28.0295182 175.030684,27.9886091 175.030684,27.7992 C175.030684,27.5979273 174.833248,27.5979273 174.698991,27.5979273 L174.361658,27.5979273 L174.361658,28.0254273 L174.76894,28.0254273 Z M112.798137,8.25201818 L90.4698291,8.25201818 L90.4698291,13.6512 L101.25735,13.6512 L90.0941368,24.9895636 L90.0941368,29.5165636 L112.759026,29.5165636 L112.759026,24.0952909 L101.474718,24.0952909 L112.798137,12.7876091 L112.798137,8.25201818 Z M77.3123248,30.0577909 C86.239812,30.0577909 88.5270598,27.5803364 88.5270598,22.1107909 L88.5270598,8.25201818 L81.4539658,8.25201818 L81.4539658,21.7356545 C81.4539658,23.7565636 79.7311966,24.7723364 77.3123248,24.7723364 C74.7930427,24.7723364 73.1706838,23.7471545 73.1706838,21.6824727 L73.1706838,8.25201818 L66.0983419,8.25201818 L66.0983419,22.1107909 C66.0983419,27.5803364 68.3852137,30.0577909 77.3123248,30.0577909 L77.3123248,30.0577909 Z M125.862376,30.0577909 C134.786479,30.0577909 137.077863,27.5803364 137.077863,22.1107909 L137.077863,8.25201818 L130.002513,8.25201818 L130.002513,21.6808364 C130.002513,23.7631091 128.277863,24.7723364 125.862376,24.7723364 C123.340462,24.7723364 121.717726,23.7471545 121.717726,21.6824727 L121.717726,8.25201818 L114.646889,8.25201818 L114.646889,22.1107909 C114.646889,27.5803364 116.935641,30.0577909 125.862376,30.0577909 L125.862376,30.0577909 Z M164.846376,29.5161545 L172.22747,29.5161545 L172.22747,8.25201818 L164.846376,8.25201818 L164.846376,29.5161545 Z M163.868222,8.25201818 L154.158889,8.25201818 L146.313726,15.5915182 L146.313726,8.25201818 L138.935265,8.25201818 L138.935265,29.5165636 L146.313726,29.5165636 L146.313726,21.9766091 L153.601556,29.5165636 L163.511709,29.5165636 L152.728701,18.6093818 L163.868222,8.25201818 Z M49.1496923,14.1318818 C48.7698632,12.4317 51.3786496,12.3727909 52.1477094,12.4325182 C52.9009744,12.4897909 54.6120855,12.7606091 55.7730085,14.8322455 L64.1108205,14.8322455 C64.1108205,10.8276545 60.6190256,7.64738182 52.1755385,7.64738182 C42.7869915,7.64738182 41.1871966,12.1203818 41.1871966,14.6927455 C41.1871966,19.4377909 44.5642906,20.8765636 51.9137949,21.6779727 C53.7448718,21.8772 56.3604274,21.8387455 56.3604274,23.5544727 C56.3604274,25.0370182 54.2138291,25.1319273 53.4259658,25.1319273 C52.6377265,25.1319273 50.6742735,24.9228818 49.5502051,22.6446545 L40.7701368,22.6446545 C40.7701368,27.3078818 43.6609744,30.0046091 53.410547,30.0046091 C62.3857949,30.0046091 64.7685641,26.0249727 64.7685641,22.9907455 C64.7685641,20.0469273 62.9122906,17.0532 55.2611795,15.9867 C52.0698632,15.5391545 49.3986496,15.2470636 49.1496923,14.1318818 L49.1496923,14.1318818 Z" id="Fill-3" fill="#043CDF"/>
                    </g>
                </g>
            </g>
        </g>
    </g>
</svg>