<svg xmlns="http://www.w3.org/2000/svg" viewBox="0 0 427.94 187.99"><defs><style>.cls-1,.cls-8{fill:#b9862d;}.cls-2,.cls-3{fill:#ceaf46;}.cls-3{font-size:46px;font-family:Dosis-ExtraBold, Dosis ExtraBold;font-weight:800;}.cls-4{letter-spacing:-0.05em;}.cls-5{letter-spacing:-0.01em;}.cls-6{letter-spacing:0.01em;}.cls-7{letter-spacing:-0.01em;}.cls-8{font-size:31px;font-family:Dosis-ExtraLight, Dosis ExtraLight;font-weight:200;letter-spacing:0.06em;}.cls-9{letter-spacing:0.07em;}.cls-10{letter-spacing:0.07em;}.cls-11{letter-spacing:0.07em;}.cls-12{letter-spacing:0.09em;}</style></defs><g id="Layer_2" data-name="Layer 2"><path class="cls-1" d="M493.42,285.44s9.33-16.43,5.77-28.87-17.76-25.53-46.4-24c0,0-21.31,13.76-41.52,5.32s-42,7.11-25.75,23.54,38.19,13.46,37.6,37.14c0,0,10.88-23.44,35.44-29.59C477.43,264.28,494.09,267.45,493.42,285.44Z" transform="translate(-304.04 -212.01)"/><path class="cls-2" d="M452.12,228.16s-5.55-3.34-22-10.22-49.73-8.88-72.82,0-40.85,26.42-47.51,52.62c0,0,16.65-16.43,32.86-18.87,0,0-28.42,17.1-35.53,47.51,0,0,27.09-26.42,44.19-30.41,0,0-38,22.86-47.29,60.16,0,0,16-16.87,30-19.53,0,0,10,28,2.88,50.84,0,0,23.54-17.1,26.65-43.07a58.49,58.49,0,0,0,4.66,26.42c6,14.21-.67,32.41-.67,32.41s17.1-14.65,20.21-28-.67-36.86,9.54-44.63a50.23,50.23,0,0,0-2,33.3c5.33,18.21,15.32,44.41.88,63.28,0,0,35.31-17.76,31.75-47.73s2.45-53.07,2.45-53.07-3.78,21.09.22,37.52,7.1,33.75,1.33,48.18c0,0,14.47-16,8-44.4s-1.41-55.52,19.52-69c0,0-24.64,6.22-37.74,32.8,0,0,0-17.32-10.66-23.31s-28.64-14.15-32.19-24.2c-3.7-10.45-1.21-20.64,15.76-24.33,10.66-2.32,13.61-7.67,26.42-6.76C436.58,226.82,439.69,234.59,452.12,228.16Z" transform="translate(-304.04 -212.01)"/><text class="cls-3" transform="translate(157.74 116.35)"><tspan class="cls-4">F</tspan><tspan x="20.33" y="0">al</tspan><tspan class="cls-5" x="53.36" y="0">c</tspan><tspan x="73.69" y="0">on </tspan><tspan class="cls-6" x="134.23" y="0">M</tspan><tspan x="171.49" y="0">o</tspan><tspan class="cls-7" x="196.74" y="0">t</tspan><tspan x="211.69" y="0">ors</tspan></text><text class="cls-8" transform="translate(160.22 143.28)">r<tspan class="cls-9" x="12.06" y="0">e</tspan><tspan class="cls-10" x="29.82" y="0">n</tspan><tspan class="cls-11" x="49.13" y="0">t car agen</tspan><tspan class="cls-12" x="198.83" y="0">c</tspan><tspan class="cls-11" x="215.51" y="0">y</tspan></text></g></svg>