<svg xmlns="http://www.w3.org/2000/svg" viewBox="0 0 55.16 52.91"><defs><style>.cls-1{fill:#b7852c;}.cls-2{fill:#cdae45;}</style></defs><g id="Layer_2" data-name="Layer 2"><g id="Layer_1-2" data-name="Layer 1"><path class="cls-1" d="M53.3,20.67s2.63-4.63,1.63-8.13-5-7.18-13.06-6.75c0,0-6,3.88-11.69,1.5s-11.81,2-7.25,6.63,10.75,3.79,10.59,10.45c0,0,3.06-6.6,10-8.33C48.8,14.71,53.49,15.61,53.3,20.67Z"/><path class="cls-2" d="M41.68,4.54a57.65,57.65,0,0,0-6.19-2.87c-4.62-1.94-14-2.5-20.49,0A21.09,21.09,0,0,0,1.62,16.48s4.69-4.62,9.25-5.31c0,0-8,4.81-10,13.37,0,0,7.63-7.43,12.44-8.56,0,0-10.69,6.44-13.31,16.94,0,0,4.5-4.75,8.44-5.5,0,0,2.81,7.87.81,14.31,0,0,6.62-4.82,7.5-12.13A16.4,16.4,0,0,0,18.06,37c1.69,4-.19,9.12-.19,9.12s4.81-4.12,5.69-7.87-.19-10.37,2.69-12.56a14.1,14.1,0,0,0-.57,9.37c1.5,5.13,4.32,12.5.25,17.81,0,0,9.94-5,8.94-13.43a44.58,44.58,0,0,1,.69-14.94s-1.07,5.94.06,10.56,2,9.5.37,13.56c0,0,4.08-4.5,2.26-12.5s-.4-15.62,5.49-19.41A17.86,17.86,0,0,0,33.12,26s0-4.88-3-6.56-8.06-4-9.06-6.81S20.72,6.8,25.5,5.76c3-.65,3.82-2.16,7.43-1.9C37.31,4.17,38.18,6.36,41.68,4.54Z"/></g></g></svg>